<svg width="17" height="17" viewBox="0 0 17 17" fill="none" xmlns="http://www.w3.org/2000/svg">
<path d="M16.6619 6.51994C16.4365 6.29453 16.1627 6.18188 15.8408 6.18188H10.818V1.15898C10.818 0.837115 10.7053 0.563377 10.48 0.337975C10.2546 0.112743 9.98109 0 9.65877 0H7.34081C7.01891 0 6.74521 0.112616 6.51981 0.338017C6.29441 0.563419 6.18175 0.837157 6.18175 1.15902V6.18192H1.15902C0.837157 6.18192 0.563419 6.29458 0.338017 6.51998C0.112616 6.74538 0 7.01886 0 7.34094V9.65919C0 9.98135 0.112574 10.2549 0.337975 10.4801C0.563377 10.7056 0.837114 10.8181 1.15898 10.8181H6.18171V15.8411C6.18171 16.163 6.29436 16.4369 6.51977 16.6622C6.74517 16.8874 7.01886 17 7.34077 17H9.65889C9.98101 17 10.2546 16.8874 10.48 16.6622C10.7055 16.4368 10.8181 16.163 10.8181 15.8411V10.8181H15.8408C16.1629 10.8181 16.4366 10.7056 16.6619 10.4801C16.8873 10.2549 17 9.98135 17 9.65919V7.34094C16.9999 7.01886 16.8874 6.74521 16.6619 6.51994Z" fill="white"/>
</svg>
