<svg width="21" height="15" viewBox="0 0 21 15" fill="none" xmlns="http://www.w3.org/2000/svg">
<path d="M18.4349 0H2.5651C1.15077 0 0 1.15077 0 2.5651V11.6915C0 13.1058 1.15077 14.2566 2.5651 14.2566H18.4349C19.8492 14.2566 21 13.1058 21 11.6915V2.56538C21.0003 1.15077 19.8495 0 18.4349 0ZM17.1815 1.67344L10.5 5.97809L3.81851 1.67344H17.1815ZM18.4349 12.5834H2.5651C2.07339 12.5834 1.67344 12.1832 1.67344 11.6918V2.6128L9.98374 7.95665C9.9949 7.96362 10.0069 7.96836 10.0183 7.97478C10.0303 7.98147 10.0426 7.98789 10.0549 7.99402C10.1193 8.02721 10.1857 8.05399 10.2534 8.07156C10.2604 8.07351 10.2674 8.07435 10.2744 8.07602C10.3488 8.09359 10.4241 8.10447 10.4994 8.10447C10.4997 8.10447 10.5 8.10447 10.5 8.10447C10.5006 8.10447 10.5008 8.10447 10.5011 8.10447C10.5764 8.10447 10.6517 8.09387 10.7262 8.07602C10.7332 8.07435 10.7401 8.07351 10.7471 8.07156C10.8149 8.05399 10.881 8.02721 10.9457 7.99402C10.958 7.98789 10.9702 7.98147 10.9822 7.97478C10.9937 7.96836 11.0057 7.96362 11.0168 7.95665L19.3271 2.6128V11.6915C19.3268 12.1832 18.9266 12.5834 18.4349 12.5834Z" fill="white"/>
</svg>
