<svg width="27" height="24" viewBox="0 0 27 24" fill="none" xmlns="http://www.w3.org/2000/svg">
<g filter="url(#filter0_d_171_51)">
<path d="M11.7551 14.3468C11.7309 14.2822 11.7225 14.2273 11.7307 14.1828C11.7389 14.1387 11.7107 14.1021 11.646 14.0739C11.5813 14.0457 11.549 14.0234 11.549 14.0074C11.549 13.9913 11.5026 13.9791 11.4096 13.9711C11.3166 13.963 11.2702 13.9589 11.2702 13.9589H11.1128H10.9795H7.48972C6.95656 13.9589 6.50011 13.7692 6.12038 13.3893C5.74074 13.0096 5.55094 12.5533 5.55094 12.0202V3.48955C5.55094 2.95639 5.7407 2.50011 6.12038 2.12042C6.50011 1.7407 6.95656 1.55077 7.48972 1.55077H11.3672C11.4723 1.55077 11.5549 1.52471 11.6156 1.47209C11.6761 1.41959 11.7164 1.34077 11.7367 1.23577C11.7569 1.13077 11.7691 1.03596 11.7731 0.951116C11.7771 0.86636 11.7752 0.759237 11.767 0.630003C11.759 0.50081 11.755 0.420044 11.755 0.387576C11.755 0.282576 11.7166 0.191878 11.6399 0.114974C11.5631 0.0384096 11.4723 0 11.3673 0H7.48972C6.5285 0 5.70649 0.341315 5.02382 1.0239C4.34132 1.70649 4 2.52837 4 3.48967V12.0202C4 12.9814 4.34132 13.8035 5.02382 14.4858C5.70649 15.1687 6.5285 15.5101 7.48972 15.5101H11.3674C11.4724 15.5101 11.5551 15.4837 11.6158 15.4314C11.6762 15.3788 11.7166 15.3001 11.7368 15.1949C11.757 15.0901 11.7692 14.9948 11.7733 14.9103C11.7773 14.8254 11.7753 14.7185 11.7672 14.5893C11.7591 14.4599 11.7551 14.3792 11.7551 14.3468Z" fill="white"/>
<path d="M22.7701 7.20964L16.1783 0.617654C16.0249 0.464355 15.8431 0.387451 15.633 0.387451C15.423 0.387451 15.2412 0.464355 15.0876 0.617654C14.9341 0.771165 14.8574 0.953112 14.8574 1.16303V4.65283H9.4289C9.21873 4.65283 9.03703 4.72973 8.88352 4.88303C8.73001 5.03654 8.65332 5.21836 8.65332 5.42841V10.0815C8.65332 10.2915 8.73001 10.4734 8.88352 10.6268C9.0372 10.78 9.21885 10.8571 9.4289 10.8571H14.8575V14.3469C14.8575 14.5567 14.9342 14.7387 15.0877 14.8921C15.2412 15.0456 15.423 15.1225 15.6331 15.1225C15.8431 15.1225 16.0249 15.0456 16.1783 14.8921L22.7701 8.30043C22.9236 8.14679 23.0003 7.96522 23.0003 7.75514C23.0003 7.54514 22.9236 7.36315 22.7701 7.20964Z" fill="white"/>
</g>
<defs>
<filter id="filter0_d_171_51" x="0" y="0" width="27" height="23.51" filterUnits="userSpaceOnUse" color-interpolation-filters="sRGB">
<feFlood flood-opacity="0" result="BackgroundImageFix"/>
<feColorMatrix in="SourceAlpha" type="matrix" values="0 0 0 0 0 0 0 0 0 0 0 0 0 0 0 0 0 0 127 0" result="hardAlpha"/>
<feOffset dy="4"/>
<feGaussianBlur stdDeviation="2"/>
<feComposite in2="hardAlpha" operator="out"/>
<feColorMatrix type="matrix" values="0 0 0 0 0 0 0 0 0 0 0 0 0 0 0 0 0 0 0.25 0"/>
<feBlend mode="normal" in2="BackgroundImageFix" result="effect1_dropShadow_171_51"/>
<feBlend mode="normal" in="SourceGraphic" in2="effect1_dropShadow_171_51" result="shape"/>
</filter>
</defs>
</svg>
