<?xml version="1.0" encoding="utf-8"?>
<!-- Generator: Adobe Illustrator 24.0.2, SVG Export Plug-In . SVG Version: 6.00 Build 0)  -->
<svg version="1.1" id="VK_Logo" xmlns="http://www.w3.org/2000/svg" xmlns:xlink="http://www.w3.org/1999/xlink" x="0px" y="0px"
	 viewBox="0 0 2500 2500" style="enable-background:new 0 0 2500 2500;" xml:space="preserve">
<style type="text/css">
	.st0{fill-rule:evenodd;clip-rule:evenodd;fill:#3C5A9A;}
</style>
<path class="st0" d="M1250,0C559.6,0,0,559.6,0,1250s559.6,1250,1250,1250s1250-559.6,1250-1250S1940.4,0,1250,0z M1636.2,1239.7
	h-237.7v876.6h-360.1v-870.9h-196V942.9h190.1c0-89.5,0.8-168.9,0-251.9c0-238.2,182.8-307.3,347.1-307.3h276.9h0h0.1v298.8
	c-23.3,0.1-113.9,0-160.5,0c-5.9,0-103.8-5.4-103.8,88.7c0.6,38.4,0,170.8,0,170.8h265.4L1636.2,1239.7z"/>
</svg>
