<?xml version="1.0" encoding="utf-8"?>
<!-- Generator: Adobe Illustrator 24.0.2, SVG Export Plug-In . SVG Version: 6.00 Build 0)  -->
<svg version="1.1" id="VK_Logo" xmlns="http://www.w3.org/2000/svg" xmlns:xlink="http://www.w3.org/1999/xlink" x="0px" y="0px"
	 viewBox="0 0 2500 2500" style="enable-background:new 0 0 2500 2500;" xml:space="preserve">
<style type="text/css">
	.st0{fill-rule:evenodd;clip-rule:evenodd;fill:#EB4335;}
</style>
<path class="st0" d="M1250,0C559.6,0,0,559.6,0,1250s559.6,1250,1250,1250s1250-559.6,1250-1250S1940.4,0,1250,0z M1941,1265.6
	c0,214.9-76.9,395.8-209.9,518.7l0,0l0,0c-116.8,108.1-276.8,170.9-467.1,170.9c-266.7,0.3-510.5-150.1-629.8-388.9l-0.1,0.1
	c-100.2-199-100.3-433.4-0.4-632.5l-0.2-0.2C753.2,695.1,997,544.9,1263.8,544.9c175-2,344.2,63.5,471.9,183.4l-199,194.3
	c-73.9-69.1-171.4-106.7-272.6-105.1c-182.6,1.1-344.1,118.6-401.9,291.7l0,1c-14.8,45.2-22.6,92.3-22.9,139.6
	c0,47.6,8.1,94.6,23.3,139.4l0.4,0c56.9,173.9,218.5,292.1,401.3,293.2c86.7,2.5,172.2-22,244.4-70.5l0.2,0.1
	c77.1-53.5,129.1-136,143.9-228.7H1264v-261.7h662.2C1936.8,1168.6,1941.9,1217.1,1941,1265.6z"/>
</svg>
