<?xml version="1.0" encoding="utf-8"?>
<!-- Generator: Adobe Illustrator 24.0.2, SVG Export Plug-In . SVG Version: 6.00 Build 0)  -->
<svg version="1.1" id="Слой_1" xmlns="http://www.w3.org/2000/svg" xmlns:xlink="http://www.w3.org/1999/xlink" x="0px" y="0px"
	 viewBox="0 0 26 26" style="enable-background:new 0 0 26 26;" xml:space="preserve">
<style type="text/css">
	.st0{enable-background:new    ;}
</style>
<path d="M13,26c-2.6,0-5.1-0.8-7.2-2.2C3.6,22.4,2,20.4,1,18s-1.2-5-0.7-7.5C0.8,7.9,2,5.6,3.8,3.8s4.1-3,6.7-3.6
	C13-0.3,15.6,0,18,1s4.4,2.7,5.8,4.8C25.2,7.9,26,10.4,26,13c0,3.4-1.4,6.8-3.8,9.2S16.4,26,13,26z M13,2c-2.2,0-4.3,0.6-6.1,1.9
	S3.7,6.8,2.8,8.8c-0.8,2-1.1,4.2-0.6,6.4s1.5,4.1,3,5.6s3.5,2.6,5.6,3s4.3,0.2,6.4-0.6c2-0.8,3.7-2.2,4.9-4.1
	c1.2-1.8,1.9-3.9,1.9-6.1c0-2.9-1.2-5.7-3.2-7.8S15.9,2,13,2z"/>
<g class="st0">
	<path d="M12.2,9.1c-0.3-0.3-0.4-0.6-0.4-1c0-0.4,0.1-0.7,0.4-1c0.3-0.3,0.7-0.4,1.1-0.4c0.5,0,0.8,0.1,1.1,0.4
		c0.3,0.3,0.4,0.6,0.4,1c0,0.4-0.1,0.8-0.4,1c-0.3,0.3-0.7,0.4-1.1,0.4C12.8,9.5,12.4,9.4,12.2,9.1z M12,10.7h2.5v8.5H12V10.7z"/>
</g>
</svg>
