<?xml version="1.0" encoding="utf-8"?>
<!-- Generator: Adobe Illustrator 24.0.2, SVG Export Plug-In . SVG Version: 6.00 Build 0)  -->
<svg version="1.1" id="VK_Logo" xmlns="http://www.w3.org/2000/svg" xmlns:xlink="http://www.w3.org/1999/xlink" x="0px" y="0px"
	 viewBox="0 0 2500 2500" style="enable-background:new 0 0 2500 2500;" xml:space="preserve">
<style type="text/css">
	.st0{fill:url(#SVGID_1_);}
	.st1{fill:url(#SVGID_2_);}
	.st2{fill:url(#SVGID_3_);}
</style>
<g>
	<radialGradient id="SVGID_1_" cx="765.1122" cy="717.9874" r="1412.795" gradientUnits="userSpaceOnUse">
		<stop  offset="9.000000e-02" style="stop-color:#FA8F21"/>
		<stop  offset="0.78" style="stop-color:#D82D7E"/>
	</radialGradient>
	<path class="st0" d="M1778.5,849.7c-12.3-31.7-27-54.3-50.8-78.1c-23.8-23.7-46.4-38.5-78.1-50.8c-24-9.2-59.9-20.3-126-23.3
		c-71.6-3.3-93.1-4-274.3-4c-181.2,0-202.6,0.7-274.2,3.9c-66.2,3-102.1,14-126,23.3c-31.7,12.3-54.3,27-78.1,50.8
		s-38.4,46.4-50.8,78.1c-9.2,24-20.3,59.9-23.3,126c-3.2,71.6-3.9,93-3.9,274.3s0.7,202.7,3.9,274.3c3,66.2,14,102.1,23.3,126
		c12.3,31.7,27,54.3,50.8,78c23.8,23.7,46.4,38.4,78.1,50.8c23.9,9.3,59.9,20.3,126,23.3v0c71.5,3.3,92.9,3.9,274.2,3.9
		c181.2,0,202.7-0.7,274.3-3.9c66.2-3,102.1-14,126-23.3c31.7-12.3,54.3-27,78.1-50.8c23.7-23.7,38.4-46.3,50.8-78
		c9.3-23.9,20.3-59.9,23.3-126c3.3-71.6,3.9-93,3.9-274.3s-0.7-202.7-3.9-274.3C1798.9,909.6,1787.9,873.6,1778.5,849.7z
		 M1249.4,1598.5c-192.5,0-348.5-156-348.5-348.5h0c0-192.5,156-348.5,348.5-348.5c192.5,0,348.5,156,348.5,348.5
		S1441.9,1598.5,1249.4,1598.5z M1611.7,969.2c-45,0-81.4-36.5-81.4-81.5c0-45,36.5-81.4,81.4-81.4h0c45,0,81.4,36.5,81.4,81.5
		C1693.1,932.8,1656.7,969.2,1611.7,969.2z"/>
	<radialGradient id="SVGID_2_" cx="1052.5226" cy="1033.6841" r="574.447" gradientUnits="userSpaceOnUse">
		<stop  offset="9.000000e-02" style="stop-color:#FA8F21"/>
		<stop  offset="0.78" style="stop-color:#D82D7E"/>
	</radialGradient>
	<path class="st1" d="M1249.4,1023.8c-124.9,0-226.2,101.3-226.2,226.2h0c0,124.9,101.3,226.2,226.2,226.2s226.2-101.3,226.2-226.2
		S1374.4,1023.8,1249.4,1023.8z"/>
	<radialGradient id="SVGID_3_" cx="161.7974" cy="54.7671" r="3174.072" gradientUnits="userSpaceOnUse">
		<stop  offset="9.000000e-02" style="stop-color:#FA8F21"/>
		<stop  offset="0.78" style="stop-color:#D82D7E"/>
	</radialGradient>
	<path class="st2" d="M1250,0L1250,0C559.6,0,0,559.6,0,1250v0c0,690.4,559.6,1250,1250,1250h0c690.4,0,1250-559.6,1250-1250v0
		C2500,559.6,1940.4,0,1250,0z M1924,1529.8c-3.2,72.2-14.7,121.6-31.5,164.7c-17.4,44.6-40.5,82.5-78.3,120.2
		c-37.8,37.7-75.6,60.9-120.2,78.3c-43.1,16.8-92.5,28.2-164.7,31.5c-72.4,3.3-95.5,4.1-279.8,4.1c-184.3,0-207.4-0.8-279.8-4.1
		c-72.2-3.3-121.5-14.7-164.7-31.5c-44.7-17.4-82.5-40.6-120.2-78.3c-37.8-37.7-61-75.6-78.3-120.2c-16.8-43.1-28.2-92.5-31.5-164.7
		c-3.3-72.4-4.1-95.5-4.1-279.8s0.8-207.4,4.1-279.8c3.3-72.2,14.7-121.6,31.5-164.7c17.3-44.7,40.5-82.5,78.3-120.2
		c37.8-37.7,75.6-61,120.2-78.3c43.1-16.8,92.5-28.2,164.7-31.5h0c72.4-3.3,95.6-4.1,279.9-4.1c184.3,0,207.4,0.8,279.8,4.1
		c72.2,3.2,121.5,14.7,164.7,31.5c44.6,17.3,82.5,40.5,120.2,78.3c37.7,37.8,60.9,75.6,78.3,120.2c16.8,43.1,28.2,92.5,31.5,164.7
		c3.3,72.4,4.1,95.5,4.1,279.8C1928,1434.3,1927.3,1457.4,1924,1529.8z"/>
</g>
</svg>
