<svg width="24" height="25" viewBox="0 0 24 25" fill="none" xmlns="http://www.w3.org/2000/svg">
<path d="M9.57185 0C4.28006 0 0 4.3562 0 9.74212C0 15.128 4.28006 19.4842 9.57185 19.4842C11.4611 19.4842 13.2097 18.9201 14.6921 17.962L21.607 25L24 22.5645L17.173 15.634C18.4003 13.9953 19.1437 11.965 19.1437 9.74212C19.1437 4.3562 14.8636 0 9.57185 0ZM9.57185 2.29226C13.6254 2.29226 16.8915 5.61649 16.8915 9.74212C16.8915 13.8677 13.6254 17.192 9.57185 17.192C5.51833 17.192 2.2522 13.8677 2.2522 9.74212C2.2522 5.61649 5.51833 2.29226 9.57185 2.29226Z" fill="white"/>
</svg>
