<svg width="26" height="23" viewBox="0 0 26 23" fill="none" xmlns="http://www.w3.org/2000/svg">
<path d="M10.6102 15.1882L11.2132 16.6959C10.6293 16.9293 10.0469 17.107 9.47875 17.2259L9.147 15.6361C9.62316 15.5357 10.1151 15.3852 10.6102 15.1882ZM5.77485 17.1356C6.36991 17.3069 6.99691 17.3989 7.63789 17.4084L7.6634 15.7836C7.165 15.7754 6.68102 15.7059 6.22405 15.5743L5.77485 17.1356ZM18.57 14.2996C19.0384 14.3919 19.4953 14.5522 19.9285 14.7758L20.6747 13.3318C20.1032 13.0382 19.5018 12.8271 18.8843 12.7063L18.57 14.2996ZM15.1803 12.9666L15.6662 14.5154C16.1626 14.3599 16.6533 14.2616 17.1259 14.2235L16.9961 12.6048C16.4025 12.6525 15.7915 12.7748 15.1803 12.9666ZM12.5716 14.1886C12.3892 14.3029 12.2098 14.4074 12.0336 14.5059L12.8239 15.9249C13.0223 15.8133 13.2254 15.6963 13.4284 15.5693C13.7078 15.3962 13.9808 15.2422 14.2489 15.1056L13.5109 13.6586C13.2064 13.8141 12.892 13.9903 12.5716 14.1886ZM17.0627 4.06249C17.0627 4.72582 16.9036 5.35426 16.6213 5.90661L13.0001 12.9999C13.0001 12.9999 9.3502 5.84767 9.33594 5.81772C9.08034 5.28765 8.9377 4.69093 8.9377 4.06249C8.9377 1.81862 10.7562 0 13.0001 0C15.2438 0 17.0627 1.81862 17.0627 4.06249ZM15.4377 4.06249C15.4377 2.71676 14.3458 1.62491 13.0001 1.62491C11.6543 1.62491 10.5625 2.71676 10.5625 4.06249C10.5625 5.40806 11.6543 6.49991 13.0001 6.49991C14.3458 6.49991 15.4377 5.40806 15.4377 4.06249ZM21.1251 8.12498H17.3135L16.4832 9.75005H19.9539L21.7075 15.0124L21.1473 15.6313C21.7441 16.1705 22.0534 16.6674 22.0551 16.6691L22.2264 16.5661L23.7452 21.1249H2.25341L3.88169 16.2453C3.93881 16.285 3.98313 16.323 4.04663 16.3625L4.91004 14.9883C4.71639 14.866 4.55767 14.7455 4.41797 14.6329L6.04631 9.74999H9.51835C9.17395 9.07702 8.9026 8.54557 8.68842 8.12492H4.87505L0 22.75H26L21.1251 8.12498Z" fill="white"/>
</svg>
