<?xml version="1.0" encoding="utf-8"?>
<!-- Generator: Adobe Illustrator 24.0.2, SVG Export Plug-In . SVG Version: 6.00 Build 0)  -->
<svg version="1.1" id="VK_Logo" xmlns="http://www.w3.org/2000/svg" xmlns:xlink="http://www.w3.org/1999/xlink" x="0px" y="0px"
	 viewBox="0 0 2500 2500" style="enable-background:new 0 0 2500 2500;" xml:space="preserve">
<style type="text/css">
	.st0{fill-rule:evenodd;clip-rule:evenodd;fill:#EB722E;}
</style>
<g>
	<path class="st0" d="M1250.6,1016.1c102.3,0,185.3-82.9,185.3-185.2c0-102.3-83-185.3-185.3-185.3c-102.2,0.1-185.1,83-185.3,185.2
		C1065.3,933.1,1148.3,1016.1,1250.6,1016.1z"/>
	<path class="st0" d="M1250,0C559.6,0,0,559.6,0,1250s559.6,1250,1250,1250s1250-559.6,1250-1250S1940.4,0,1250,0z M1250.3,383.4
		c247-0.1,447.3,200,447.4,447.1c0.1,247-200,447.3-447.1,447.4c-246.9-0.2-447.1-200.2-447.4-447.1
		C803.1,583.8,1003.3,383.5,1250.3,383.4z M1681.4,1893.1c51.1,51.2,51.1,134,0,185.1c-51.2,51.1-134,51.1-185.1,0l-245.8-245.8
		l-245.6,245.8c-50.6,47.8-129.7,47.8-180.3,0c-52.7-49.8-55-132.8-5.2-185.4l250.1-250.1c-92-21-179.8-57.4-259.6-107.6
		c0,0-0.1-0.1-0.2-0.1c-61.2-38.7-79.4-119.6-40.7-180.7c38.5-61,119.2-79.4,180.3-41c184.2,115.2,418,115.2,602.2,0
		c60.7-37.4,140.3-19.3,178.9,40.6c39.3,60.9,21.8,142-39.1,181.3c-79.9,50.3-167.8,86.7-259.8,107.6L1681.4,1893.1z"/>
</g>
</svg>
