<svg width="18" height="20" viewBox="0 0 18 20" fill="none" xmlns="http://www.w3.org/2000/svg">
<path d="M8.99949 19C8.94122 19 8.88289 18.991 8.82671 18.973C6.93846 18.3681 5.33086 17.208 4.04848 15.5248C3.03889 14.1996 2.2305 12.5502 1.64591 10.6226C0.659763 7.37118 0.648438 4.47469 0.648438 4.353C0.648438 4.06135 0.869972 3.81734 1.16031 3.7893C1.20403 3.78506 5.60222 3.33355 8.66673 1.10806C8.86516 0.963884 9.13387 0.964054 9.3323 1.10812C12.396 3.33355 16.7947 3.78506 16.8388 3.78936C17.1289 3.81768 17.3504 4.06158 17.3504 4.353C17.3504 4.47469 17.339 7.37118 16.353 10.6226C15.7683 12.5503 14.96 14.1996 13.9504 15.5248C12.6681 17.208 11.0605 18.3682 9.17221 18.9731C9.11603 18.991 9.05776 19 8.99949 19ZM1.79728 4.84981C1.84434 5.80028 2.02731 7.98924 2.73756 10.3197C3.94972 14.2966 6.05611 16.8248 8.99943 17.8371C11.9496 16.8225 14.0584 14.2858 15.2691 10.2939C15.9745 7.96789 16.1555 5.79558 16.2019 4.84986C14.9331 4.66474 11.6467 4.03825 8.99938 2.25708C6.35183 4.03808 3.06607 4.66469 1.79728 4.84981Z" fill="white" stroke="white"/>
</svg>
