<?xml version="1.0" encoding="utf-8"?>
<!-- Generator: Adobe Illustrator 24.0.2, SVG Export Plug-In . SVG Version: 6.00 Build 0)  -->
<svg version="1.1" id="Capa_1" xmlns="http://www.w3.org/2000/svg" xmlns:xlink="http://www.w3.org/1999/xlink" x="0px" y="0px"
	 viewBox="0 0 206.8 206.8" style="enable-background:new 0 0 206.8 206.8;" xml:space="preserve">
<style type="text/css">
	.st0{fill:#010002;}
</style>
<g>
	<g>
		<path class="st0" d="M20.1,5.3l-9,9.1l0.2,0.2c-3,3.8-5.5,8.3-7.4,13.1C2.2,32.2,1.1,36.6,0.7,41c-4.2,35,11.8,66.9,55.1,110.3
			c59.9,59.9,108.2,55.4,110.3,55.2c4.5-0.5,8.9-1.6,13.3-3.3c4.7-1.8,9.2-4.4,13-7.4l0.2,0.2l9.1-8.9c6.6-6.6,6.8-17.1,0.4-23.5
			l-31.9-31.9c-6.4-6.3-16.9-6.1-23.5,0.4L130.6,148c-1-0.6-2.1-1.1-3.2-1.8c-10.2-5.6-24.1-13.3-38.7-28
			c-14.7-14.7-22.4-28.6-28-38.8c-0.6-1.1-1.2-2.1-1.7-3.1l10.8-10.8l5.3-5.3c6.6-6.6,6.8-17.1,0.4-23.5L43.6,4.9
			C37.3-1.5,26.7-1.3,20.1,5.3z M36.5,12l31.9,31.9c2.4,2.4,2.2,6.6-0.4,9.3L46.5,74.8l2,3.4c1.1,1.9,2.3,4,3.5,6.2
			c5.9,10.7,14.1,25.3,29.7,41c15.6,15.6,30.2,23.7,40.9,29.7c2.3,1.3,4.4,2.4,6.3,3.6l3.4,2l21.6-21.6c2.7-2.7,6.9-2.9,9.3-0.4
			l31.9,31.9c2.4,2.5,2.2,6.6-0.4,9.3l-4,4l-1.6,1.5c-2.5,2.4-6.9,5.9-13.3,8.3c-3.6,1.4-7.2,2.3-10.8,2.7
			c-0.5,0-45.9,3.9-102.1-52.3C15.1,96.3,7.4,68.8,10.6,42.1c0.4-3.5,1.3-7.1,2.7-10.8c2.5-6.4,5.9-10.8,8.4-13.3l5.5-5.6
			C29.9,9.7,34.1,9.5,36.5,12z"/>
	</g>
</g>
</svg>
