<?xml version="1.0" encoding="utf-8"?>
<!-- Generator: Adobe Illustrator 24.0.2, SVG Export Plug-In . SVG Version: 6.00 Build 0)  -->
<svg version="1.1" id="Слой_1" xmlns="http://www.w3.org/2000/svg" xmlns:xlink="http://www.w3.org/1999/xlink" x="0px" y="0px"
	 viewBox="0 0 21 21" style="enable-background:new 0 0 21 21;" xml:space="preserve">
<style type="text/css">
	.st0{fill:#000505;}
</style>
<g>
	<path class="st0" d="M14.8,16.9c0.2,0.2,0.6,0.2,0.8,0l3.5-3.5c0.2-0.2,0.2-0.6,0-0.8c-0.2-0.2-0.6-0.2-0.8,0l-3.1,3.1l-3.1-3.1
		c-0.2-0.2-0.6-0.2-0.8,0c-0.2,0.2-0.2,0.6,0,0.8L14.8,16.9z"/>
	<path class="st0" d="M14.7,16V4.5c0-0.3,0.2-0.5,0.5-0.5h0.1c0.3,0,0.5,0.2,0.5,0.5V16c0,0.3-0.2,0.5-0.5,0.5h-0.1
		C14.9,16.5,14.7,16.3,14.7,16z"/>
	<path class="st0" d="M6.2,4.2C6,3.9,5.6,3.9,5.4,4.2L1.8,7.7c-0.2,0.2-0.2,0.6,0,0.8c0.2,0.2,0.6,0.2,0.8,0l3.1-3.1l3.1,3.1
		c0.2,0.2,0.6,0.2,0.8,0c0.2-0.2,0.2-0.6,0-0.8L6.2,4.2z"/>
	<path class="st0" d="M6.3,5v11.5c0,0.3-0.2,0.5-0.5,0.5H5.7c-0.3,0-0.5-0.2-0.5-0.5V5c0-0.3,0.2-0.5,0.5-0.5h0.1
		C6.1,4.5,6.3,4.7,6.3,5z"/>
</g>
</svg>
