<svg width="25" height="25" viewBox="0 0 25 25" fill="none" xmlns="http://www.w3.org/2000/svg">
<path d="M24.3853 10.3793L21.1939 9.8577C21.0071 9.21726 20.7517 8.60166 20.432 8.019L22.295 5.36382C22.4456 5.14944 22.4197 4.8573 22.2345 4.67154L20.1344 2.57256C19.9471 2.38572 19.6522 2.36142 19.4373 2.5164L16.8221 4.39614C16.234 4.07106 15.613 3.81294 14.9688 3.62556L14.4121 0.44712C14.3667 0.189 14.1426 0 13.8802 0H10.9102C10.6456 0 10.4198 0.1917 10.3772 0.45306L9.86094 3.61422C9.21294 3.80052 8.59086 4.05594 8.00496 4.3767L5.39676 2.5137C5.1813 2.3598 4.88808 2.38464 4.7007 2.57094L2.60172 4.66992C2.4165 4.85514 2.39058 5.14674 2.54124 5.36112L4.3767 7.98714C4.05 8.57844 3.78972 9.2043 3.60018 9.85554L0.45144 10.3799C0.19116 10.4231 0 10.6488 0 10.9123V13.8823C0 14.1442 0.18792 14.3683 0.4455 14.4142L3.59424 14.9726C3.7827 15.6222 4.04298 16.2481 4.37076 16.841L2.51262 19.44C2.35926 19.6544 2.38356 19.9487 2.56986 20.1361L4.66938 22.2372C4.8546 22.4224 5.14674 22.4483 5.36112 22.2977L7.99092 20.4557C8.58114 20.7803 9.20484 21.0379 9.85122 21.2247L10.3783 24.3896C10.4209 24.6494 10.6461 24.84 10.9102 24.84H13.8802C14.1421 24.84 14.3662 24.6521 14.4115 24.3945L14.9758 21.2139C15.6233 21.0233 16.2437 20.7641 16.828 20.439L19.4767 22.2971C19.6916 22.4489 19.9832 22.4224 20.169 22.2372L22.2685 20.1361C22.4554 19.9487 22.4797 19.6533 22.3247 19.4384L20.4358 16.8156C20.756 16.2324 21.0103 15.6157 21.1955 14.9753L24.3913 14.4142C24.6499 14.3689 24.8378 14.1442 24.8378 13.8823V10.9123C24.8384 10.6477 24.6467 10.422 24.3853 10.3793ZM12.4189 16.2C10.3313 16.2 8.63892 14.5076 8.63892 12.42C8.63892 10.3324 10.3313 8.64 12.4189 8.64C14.5066 8.64 16.1989 10.3324 16.1989 12.42C16.1989 14.5076 14.5066 16.2 12.4189 16.2Z" fill="white"/>
</svg>
