<?xml version="1.0" encoding="utf-8"?>
<!-- Generator: Adobe Illustrator 24.0.2, SVG Export Plug-In . SVG Version: 6.00 Build 0)  -->
<svg version="1.1" id="VK_Logo" xmlns="http://www.w3.org/2000/svg" xmlns:xlink="http://www.w3.org/1999/xlink" x="0px" y="0px"
	 viewBox="0 0 2500 2500" style="enable-background:new 0 0 2500 2500;" xml:space="preserve">
<style type="text/css">
	.st0{fill-rule:evenodd;clip-rule:evenodd;fill:#1DA1F2;}
</style>
<path class="st0" d="M1250,0C559.6,0,0,559.6,0,1250s559.6,1250,1250,1250s1250-559.6,1250-1250S1940.4,0,1250,0z M1801.7,967
	c0.6,12.2,0.8,24.5,0.8,36.8c0,376.3-286.3,810.2-809.9,810.2l0,0c-160.8,0-310.4-47.1-436.3-127.9c22.5,2.6,45.2,4,67.9,3.9
	c133.4,0,256.1-45.5,353.5-121.9c-124.6-2.3-229.7-84.6-265.9-197.8c17.3,3.3,35.2,5.1,53.5,5.1c25.4,0,50.6-3.4,75.1-10
	C710.1,1339.4,612,1224.2,612,1086.3c0-1.3,0-2.4,0-3.6c39.5,22,83.7,34.2,128.9,35.6c-76.4-51-126.7-138.2-126.7-237
	c0-50.3,13.3-99.7,38.5-143.1c140.4,172.3,350.2,285.6,586.7,297.5c-4.9-20.9-7.4-42.6-7.4-64.9c0-157.2,127.5-284.7,284.7-284.7
	c81.9,0,155.8,34.6,207.8,90c63.7-12.6,124.9-36,180.7-69.1c-21.3,66.5-66.4,122.2-125.2,157.5c57.6-6.9,112.5-22.2,163.5-44.8
	C1905.5,876.7,1857.4,926.7,1801.7,967z"/>
</svg>
