<?xml version="1.0" encoding="utf-8"?>
<!-- Generator: Adobe Illustrator 24.0.2, SVG Export Plug-In . SVG Version: 6.00 Build 0)  -->
<svg version="1.1" id="VK_Logo" xmlns="http://www.w3.org/2000/svg" xmlns:xlink="http://www.w3.org/1999/xlink" x="0px" y="0px"
	 viewBox="0 0 2500 2500" style="enable-background:new 0 0 2500 2500;" xml:space="preserve">
<style type="text/css">
	.st0{fill:#36E04B;}
</style>
<g>
	<path class="st0" d="M1253.5,605.4c-351.9,0-638.1,286.1-638.2,637.7c-0.1,120.5,33.7,237.9,97.5,339.4l15.2,24.1l-64.4,235.3
		l241.5-63.3l23.3,13.8c97.9,58.1,210.2,88.8,324.7,88.9h0.3c351.6,0,637.8-286.1,637.9-637.8c0.1-170.4-66.2-330.6-186.7-451.2
		C1584,671.9,1423.9,605.4,1253.5,605.4z M1628.7,1517.3c-16,44.8-92.6,85.7-129.4,91.2c-33,4.9-74.9,7-120.8-7.6
		c-27.9-8.8-63.6-20.6-109.3-40.4c-192.4-83-318-276.7-327.6-289.5c-9.6-12.8-78.3-104-78.3-198.3s49.5-140.7,67.1-159.9
		c17.6-19.2,38.4-24,51.1-24c12.8,0,25.6,0.1,36.8,0.7c11.8,0.6,27.6-4.5,43.2,32.9c16,38.4,54.3,132.8,59.1,142.3
		c4.8,9.6,8,20.8,1.6,33.6c-6.4,12.8-9.6,20.8-19.2,32c-9.6,11.2-20.1,25-28.8,33.6c-9.6,9.6-19.6,19.9-8.4,39.1
		c11.2,19.2,49.7,82,106.7,132.8c73.3,65.3,135,85.6,154.2,95.2c19.2,9.6,30.4,8,41.6-4.8c11.2-12.8,47.9-56,60.7-75.2
		c12.8-19.2,25.6-16,43.2-9.6c17.6,6.4,111.9,52.8,131,62.4h0c19.2,9.6,32,14.4,36.8,22.4S1644.7,1472.5,1628.7,1517.3z"/>
	<path class="st0" d="M1250,0.3L1250,0.3C559.6,0.3,0,559.9,0,1250.3v0c0,690.4,559.6,1250,1250,1250h0
		c690.4,0,1250-559.6,1250-1250v0C2500,559.9,1940.4,0.3,1250,0.3z M1253.2,2010.9h-0.3c-128.5-0.1-254.7-32.3-366.8-93.4
		l-406.9,106.7l108.9-397.6C521,1510.3,485.6,1378.3,485.7,1243c0.2-423.1,344.5-767.2,767.5-767.2c205.3,0.1,398,80,543,225l0,0
		c144.9,145,224.7,337.8,224.6,542.8C2020.6,1666.7,1676.2,2010.9,1253.2,2010.9z"/>
</g>
</svg>
