<svg width="21" height="21" viewBox="0 0 21 21" fill="none" xmlns="http://www.w3.org/2000/svg">
<path d="M10.5 10.5C11.5443 10.5 12.5458 10.0852 13.2842 9.34673C14.0227 8.60831 14.4375 7.60679 14.4375 6.5625C14.4375 5.51821 14.0227 4.51669 13.2842 3.77827C12.5458 3.03984 11.5443 2.625 10.5 2.625C9.45571 2.625 8.45419 3.03984 7.71577 3.77827C6.97734 4.51669 6.5625 5.51821 6.5625 6.5625C6.5625 7.60679 6.97734 8.60831 7.71577 9.34673C8.45419 10.0852 9.45571 10.5 10.5 10.5ZM13.125 6.5625C13.125 7.25869 12.8484 7.92637 12.3562 8.41866C11.8639 8.91094 11.1962 9.1875 10.5 9.1875C9.80381 9.1875 9.13613 8.91094 8.64384 8.41866C8.15156 7.92637 7.875 7.25869 7.875 6.5625C7.875 5.86631 8.15156 5.19863 8.64384 4.70634C9.13613 4.21406 9.80381 3.9375 10.5 3.9375C11.1962 3.9375 11.8639 4.21406 12.3562 4.70634C12.8484 5.19863 13.125 5.86631 13.125 6.5625ZM18.375 17.0625C18.375 18.375 17.0625 18.375 17.0625 18.375H3.9375C3.9375 18.375 2.625 18.375 2.625 17.0625C2.625 15.75 3.9375 11.8125 10.5 11.8125C17.0625 11.8125 18.375 15.75 18.375 17.0625ZM17.0625 17.0573C17.0612 16.7344 16.8604 15.7631 15.9705 14.8733C15.1147 14.0175 13.5043 13.125 10.5 13.125C7.49438 13.125 5.88525 14.0175 5.0295 14.8733C4.13963 15.7631 3.94012 16.7344 3.9375 17.0573H17.0625Z" fill="white"/>
<path d="M6.5 13L3.5 16.5L4 17.5H17.5L17 15L13.5 13H6.5Z" fill="white"/>
<circle cx="10.5" cy="6.5" r="3.5" fill="white"/>
</svg>
