<svg width="27" height="28" viewBox="0 0 27 28" fill="none" xmlns="http://www.w3.org/2000/svg">
<path d="M20.1308 5.54474L18.2762 4.8653L16.9248 3.83873C16.2316 3.31215 15.3429 3.21873 14.5856 3.51334L13.7382 3.20292C13.1326 2.98109 12.4769 3.00832 11.8919 3.27967C11.3067 3.55098 10.8623 4.03403 10.6407 4.63946L8.17812 11.3615L3.95338 16.9229C3.1481 17.9829 3.35538 19.5005 4.4155 20.3059L5.04145 20.7814C5.1685 21.6266 5.74055 22.3792 6.59812 22.6933L8.45268 23.3727L9.80405 24.3993C10.4972 24.9259 11.3859 25.0193 12.1432 24.7247L12.9908 25.0353C14.0093 25.4083 15.1203 25.0496 15.7447 24.2277C15.8866 24.0409 16.0034 23.8302 16.0881 23.5986L18.5507 16.8766L22.7754 11.3153C23.5807 10.2551 23.3734 8.73755 22.3133 7.93223L21.6876 7.45686C21.6537 7.2312 21.5893 7.00887 21.4906 6.79604C21.2192 6.21089 20.7362 5.76658 20.1308 5.54474ZM11.9329 5.11294C11.9692 5.01386 12.0194 4.92246 12.0815 4.8408C12.1825 4.70774 12.3151 4.60055 12.4709 4.52832C12.7225 4.41172 13.0043 4.39998 13.2647 4.49527L13.3659 4.53233L11.0091 7.63487L11.9329 5.11294ZM14.7958 23.1251C14.5991 23.6627 14.0015 23.9396 13.4641 23.7428L13.3628 23.7057L15.7197 20.6032L14.7958 23.1251ZM21.4807 9.02814C21.9365 9.37436 22.0256 10.0268 21.6794 10.4827L12.091 23.1047C11.7448 23.5604 11.0924 23.6495 10.6365 23.3033L5.24805 19.2099C4.79229 18.8637 4.70312 18.2112 5.04934 17.7554L14.6377 5.13342C14.9839 4.67766 15.6364 4.58849 16.0922 4.93475L21.4807 9.02814Z" fill="white"/>
<path d="M15.7282 10.2111C15.5559 10.438 15.6001 10.7619 15.827 10.9343C16.0539 11.1066 16.3778 11.0624 16.5502 10.8355C16.7229 10.6081 16.6783 10.2846 16.4514 10.1123C16.2245 9.93993 15.901 9.9837 15.7282 10.2111Z" fill="white"/>
<path d="M14.4685 9.25356C14.2961 9.48046 14.3403 9.80439 14.5672 9.97676C14.7941 10.1491 15.1181 10.1049 15.2904 9.87798C15.4632 9.65061 15.4185 9.3271 15.1917 9.15478C14.9648 8.98241 14.6412 9.02618 14.4685 9.25356Z" fill="white"/>
<path d="M13.2067 8.29604C13.0344 8.52294 13.0786 8.84688 13.3055 9.01924C13.5324 9.19157 13.8564 9.14737 14.0287 8.92046C14.2015 8.69309 14.1568 8.36958 13.9299 8.19726C13.703 8.02489 13.3795 8.06866 13.2067 8.29604Z" fill="white"/>
<path d="M18.2497 12.1261C18.0773 12.353 18.1216 12.677 18.3485 12.8493C18.5753 13.0216 18.8993 12.9774 19.0717 12.7505C19.2444 12.5232 19.1998 12.1997 18.9729 12.0273C18.746 11.855 18.4224 11.8987 18.2497 12.1261Z" fill="white"/>
<path d="M16.988 11.1686C16.8156 11.3955 16.8599 11.7194 17.0868 11.8918C17.3136 12.0641 17.6376 12.0199 17.81 11.793C17.9827 11.5656 17.938 11.2421 17.7112 11.0698C17.4843 10.8975 17.1607 10.9412 16.988 11.1686Z" fill="white"/>
</svg>
