<svg width="20" height="20" viewBox="0 0 20 20" fill="none" xmlns="http://www.w3.org/2000/svg">
<path d="M5.33938 12.616L8.08296 9.05104L11.2125 11.5077L13.8974 8.0427M18.0247 7.49636C18.1466 8.3168 18.2025 9.2408 18.2025 10.2775C18.2025 16.6374 16.0832 18.7567 9.72334 18.7567C3.36439 18.7567 1.24414 16.6374 1.24414 10.2775C1.24414 3.91861 3.36439 1.79836 9.72334 1.79836C10.7408 1.79836 11.6493 1.85244 12.4578 1.96978M17.027 1.15405C18.0005 1.15405 18.7888 1.94239 18.7888 2.91589C18.7888 3.88847 18.0005 4.67772 17.027 4.67772C16.0535 4.67772 15.2651 3.88847 15.2651 2.91589C15.2651 1.94239 16.0535 1.15405 17.027 1.15405Z" stroke="white" stroke-width="1.5" stroke-linecap="round" stroke-linejoin="round"/>
</svg>
